# xmcd
#
# Track frame offsets:
#	150
#	13260
#	24626
#	39358
#	50611
#	61016
#	77525
#	89266
#	101936
#	124773
#	156268
#	166496
#	178285
#
# Disc length: 2567 seconds
#
# Revision: 1
# Processed by: cddbd v1.4PL0 Copyright (c) Steve Scherf et al.
# Submitted via: audiograbber 1.80
#
DISCID=a70a050d
DTITLE=Ray Charles - The Great Ray Charles Disc 1
DYEAR=1900
DGENRE=
TTITLE0=Baby, Won't You Please Come Home
TTITLE1=She's On The Ball
TTITLE2=Hallelujah, I Love Her So
TTITLE3=Margie
TTITLE4=Th'ego Song
TTITLE5=I Believe To My Soul
TTITLE6=If I Give You My Love
TTITLE7=You Always Miss The Water (When The Well Runs Dry)
TTITLE8=What I'd Say
TTITLE9=Come Rain Or Come Shine
TTITLE10=I've Had My Fun (Going Down Slow)
TTITLE11=C.c. Rider
TTITLE12=Baby Let Me Hold Your Hand
EXTD=
EXTT0=
EXTT1=
EXTT2=
EXTT3=
EXTT4=
EXTT5=
EXTT6=
EXTT7=
EXTT8=
EXTT9=
EXTT10=
EXTT11=
EXTT12=
PLAYORDER=
